<svg id="Layer_1" data-name="Layer 1" xmlns="http://www.w3.org/2000/svg" viewBox="0 0 296.82 332.19"><defs><style>.cls-1,.cls-2,.cls-3,.cls-4,.cls-5,.cls-6{fill-rule:evenodd;}.cls-2,.cls-4{fill:#fff;}.cls-2,.cls-3{stroke:#fff;stroke-miterlimit:10;}.cls-3{fill:#0d5d85;}.cls-5{fill:#706f6f;}.cls-6{fill:#1d1d1b;}</style></defs><title>finallogo3</title><path class="cls-1" d="M284.66,146.16l74.16-44.58a48.72,48.72,0,0,1,66.64,16.61l82,136.42a48.7,48.7,0,0,1-16.61,66.64l-74.16,44.57a48.71,48.71,0,0,1-66.64-16.6l-82-136.42A48.71,48.71,0,0,1,284.66,146.16Z" transform="translate(-220.68 -42.92)"/><path class="cls-2" d="M409.29,367.53a60.21,60.21,0,0,1-20.84,6.7c-11.92,1.47-22.87-1.32-36.74-9.27L278.5,323c-22.6-12.94-29.36-42.65-15-66l85.37-139.22a52.43,52.43,0,0,1,37.69-24.57,48.6,48.6,0,0,0-36.21,24.57L273.16,257a48.71,48.71,0,0,0,18.94,66L367.79,365A48.44,48.44,0,0,0,409.29,367.53Z" transform="translate(-220.68 -42.92)"/><path class="cls-3" d="M504.21,206.8l-77,143.82c-3.82,7.14-10.37,12.86-17.89,16.91a48.44,48.44,0,0,1-41.5-2.57L292.1,323a48.71,48.71,0,0,1-18.94-66l77.15-139.22a48.78,48.78,0,0,1,50.07-24.41A45.42,45.42,0,0,1,416,98.85l73.21,41.94C511.77,153.73,517.15,182.64,504.21,206.8Z" transform="translate(-220.68 -42.92)"/><path class="cls-3" d="M511,206.8l-48.52,87.56L433.8,346q-1,1.77-2.1,3.42A48.72,48.72,0,0,1,367.79,365L292.1,323a48.71,48.71,0,0,1-18.94-66l77.15-139.22a48.78,48.78,0,0,1,50.07-24.41,47.72,47.72,0,0,1,15.94,5.47L492,140.79A48.71,48.71,0,0,1,511,206.8Z" transform="translate(-220.68 -42.92)"/><polygon class="cls-4" points="254.39 238.26 214.91 297.91 245.74 242.47 254.39 238.26"/><path class="cls-4" d="M429.59,157.18A10.59,10.59,0,1,0,419,146.59,10.61,10.61,0,0,0,429.59,157.18Z" transform="translate(-220.68 -42.92)"/><path class="cls-1" d="M409.29,95.75c.74-2.61,1.79-6.17,2.63-8.31,1-2.5,2.1-5,3.36-7.51,7.08-14,17.24-24.86,28-31.06,11.13-6.45,22.92-8,32.73-3S491.56,61.21,493,74c1.36,12.29-1.34,26.9-8.42,40.92-6.49,12.84-15.57,23-25.29,29.4-10.16,6.68-21.08,9.26-30.65,6.52a3.26,3.26,0,0,1,1.78-6.27c7.69,2.2,16.72,0,25.3-5.67,8.81-5.78,17.08-15.1,23.05-26.91,6.5-12.86,9-26.17,7.76-37.28-1.18-10.63-5.76-19.14-13.47-23s-17.29-2.53-26.54,2.83c-9.67,5.6-18.91,15.5-25.4,28.35q-1.74,3.45-3.11,7-.53,1.34-1,2.67c-.38,1.07-1.17,4-1.74,6.17l-.73-.4A48,48,0,0,0,409.29,95.75Z" transform="translate(-220.68 -42.92)"/><path class="cls-4" d="M427.36,151.72c18.75,1.28,33.36-5.37,45.71-19.54C483,120.82,487,110.5,491.2,97c-3.45,19.31-11.49,34.41-25.32,45.8-12.09,10-23.59,13.3-39.13,12.54Z" transform="translate(-220.68 -42.92)"/><path class="cls-1" d="M278.46,284.83c-40.84,6-75.26,14.86-22.69,22.57S374.26,331.05,401,319.82l106.43-44.71c8.94-3.76,7.32-8.35-1.8-10.22-13.67-2.8-29.44-5.66-32-5.81C473.62,259.08,287.54,277.61,278.46,284.83Z" transform="translate(-220.68 -42.92)"/><path class="cls-1" d="M391.61,249.46l-18.72-1.13c-9.29-.56-17.65,13.12-18.67,30.55s5.68,32,15,32.58l18.72,1.12c9.29.56,17.66-13.12,18.68-30.55S400.91,250,391.61,249.46Z" transform="translate(-220.68 -42.92)"/><path class="cls-1" d="M483.65,235.14l-10.26-.62c-5.1-.31-9.68,9.28-10.24,21.41s3.12,22.22,8.21,22.53l10.27.62c5.1.31,9.68-9.28,10.24-21.42S488.75,235.44,483.65,235.14Z" transform="translate(-220.68 -42.92)"/><path class="cls-1" d="M277.91,256.47l-10.26-2.25C262.55,253.1,258,262,257.41,274s3.12,22.71,8.21,23.83l10.27,2.25c5.09,1.11,9.68-7.75,10.24-19.79S283,257.59,277.91,256.47Z" transform="translate(-220.68 -42.92)"/><path class="cls-4" d="M222.28,269.86c-.51-5.74-.7-12.85.71-18.05a29.33,29.33,0,0,1,5.64-10.73A43.79,43.79,0,0,1,231,231c1.38-3.82,3.45-7.56,6.74-10.06a25.89,25.89,0,0,1,6-3c2.64-1.05,5.31-2,8-2.92,7.13-2.47,14.33-4.76,21.53-7q14-4.4,28.15-8.56c25.28-20.73,43-28.41,76.42-28.77,25.78-.27,61.41,1.8,83.67,15.78A87.34,87.34,0,0,1,480.1,201.6a32.82,32.82,0,0,0,5.26,4.5c2.11,1.53,4.3,2.94,6.54,4.27,1.26.75,2.54,1.53,3.87,2.16,5,2.38,6.13,7.57,6.89,12.5.58,3.79.93,7.61,1.25,11.43.41,4.93.14,9.94.71,14.93,1.23,10.68-4,14.44-12.55,14.63l-1.89-30.45v-6.95L245,246.61c-8.8-2-9.83,36.39-11.37,37.93C221.37,283.81,219.05,274.39,222.28,269.86Z" transform="translate(-220.68 -42.92)"/><path class="cls-1" d="M303.76,203.77c24.43-20.16,41-27.92,74.13-28.28,24.15-.26,59.6,1.58,81,15,5.94,3.73,12.83,9,17.52,14.32a38.2,38.2,0,0,0,6.06,5.22c2.23,1.61,4.55,3.11,6.91,4.51,1.35.81,2.84,1.7,4.26,2.37,3.13,1.5,3.71,5.85,4.16,8.83.57,3.67.91,7.41,1.22,11.1.28,3.38.52,6.76.75,10.13.12,1.86.19,3.82.41,5.66a12.8,12.8,0,0,1-1.95,8.42l-.3.43L486.45,271V252a40.7,40.7,0,0,0-.72-8.15,14.27,14.27,0,0,0-1.12-3.32l-.51.29c-2.1,1.33-3.87,8.94-4.35,11.33a110,110,0,0,0-1.94,15.62l-.14,2.73-76,26,.82-7.11c1-8.25,1.55-24.1-1.6-32-.92-2.31-2.55-4.79-5-5.62-5.53-1.86-10.8,5.27-12.95,9.12a39.79,39.79,0,0,0-3.62,9.32A96.42,96.42,0,0,0,376.73,290c-.12,2.53-.17,5.08-.34,7.6-.14,2.1-.32,4.61-1.81,6.16-3.37,3.51-15.91,3.22-20.47,3.12-7.58-.16-15.25-.81-22.83-1.64-11.45-1.26-22.9-3-34.29-5-10.23-1.77-62.49-10.66-70.44-19.09-3.15-3.34-1.75-7.15.79-9.77-.6-5.74-.93-13.55.37-18.32a24,24,0,0,1,5.72-10V243a36.49,36.49,0,0,1,2.15-10.38c1-2.89,2.62-5.94,5.09-7.82a23.49,23.49,0,0,1,4.9-2.41c2.55-1,5.17-1.94,7.77-2.84,7.07-2.45,14.24-4.72,21.39-7Q289.21,208.07,303.76,203.77Z" transform="translate(-220.68 -42.92)"/><path class="cls-5" d="M306,207.67c-13.8,4.08-58.43,17.47-62.59,20.63s-5.67,13.08-5.67,15v1.89a18.72,18.72,0,0,0-5.87,9.29c-1.64,6.06,0,18.91,0,18.91s-4.25,2.87-2.27,5,14,8.41,67.89,17.7,72,6.61,73.94,4.64-.94-26.53,7.75-42.08,21.18-14,25.72-2.61,1.89,34.15,1.89,34.15l66.76-22.83s-1.4-11.52.59-21.12c.93-4.48,3.48-9.64,5.65-11,4.13-2.62,10.1,0,11.74,4,3.12,7.58,2.32,12.76,2.37,20.16l.83-.84a8.57,8.57,0,0,0,1.22-5.55c-.37-3.28-1.65-31-3.92-32.1s-13.61-7.44-18.72-13.23c-3.49-4-13.25-12.79-26.14-18.66-16.25-7.4-52.1-9.3-69-9.12C346.29,180.13,330.58,187.26,306,207.67Z" transform="translate(-220.68 -42.92)"/><path class="cls-5" d="M250.84,238.94c-.46.51-1,3.51-1,7.16a3.42,3.42,0,0,0,2.69,3.32c14,3.76,40,7.1,56.29,8.54,2.9.25,5.71.82,7.07-2.08s1.47-5.34-.23-7c-1.21-1.19-21.49-3.64-38.25-6-14.8-2.07-26.39-4.13-26.54-4Zm-1.48,11.46c0-.32,12.5,5.1,30.39,6.82,7.26.7,21.69,3.24,31.14,2.6,3.22-.22,3.21-.45.9,2.37-5.57,6.84-11.52,7.19-24.64,5.84-14.16-1.45-23.6-3.61-31.58-6.52C251.93,260.18,249.94,255,249.36,250.4Z" transform="translate(-220.68 -42.92)"/><path class="cls-5" d="M231.32,257.6c-.65,6.5.53,15.76.53,15.76s-4.25,2.87-2.27,5,14,8.41,67.89,17.7,72,6.61,73.94,4.64-.94-26.53,7.75-42.08,21.18-14,25.72-2.61,1.89,34.15,1.89,34.15l66.76-22.83s-.72-26.08,6.24-30.15,10.05,1.32,11.74,7.54c2,7.25.89,16.37,1.07,16.17l2.13-2.41a8.57,8.57,0,0,0,1.22-5.55c-.3-2.61-1.17-20.74-2.65-28.55a28.91,28.91,0,0,1-1.17,4c-1.51,3.88-23.07,5.42-23.07,5.42L405.5,248.5s-4.35-7.07-12.67-6.25-14.18,13.33-19.1,22.68c-3.87,7.36-14.43,11.62-21.14,12.59,6.93,5,12.91,19.72,9.42,20.61s-24.59-.91-26.29-2.91-4-15.55-5.1-16-17.78-2.39-17.78-2.39a120.67,120.67,0,0,1,12.59-2.08c-8.51.14-16.2,1-17.31,1.54-2.27,1.19-11.73-.7-11.73-.7s-47.84-6.85-50.3-8.7S234.53,258.89,231.32,257.6Z" transform="translate(-220.68 -42.92)"/><path class="cls-1" d="M231.58,255.69c-1.17,6.41-.48,16.82-.48,16.82.24,1.06,2.54,2.12,4.05,2.46s3.18.8,3.66-.38a38.68,38.68,0,0,0,2-8.64C241.16,262.2,240.89,261.23,231.58,255.69Z" transform="translate(-220.68 -42.92)"/><path class="cls-1" d="M243.39,228.3c-4.16,3.15-5.67,13.08-5.67,15v1.89l-.24.2a53.61,53.61,0,0,0,7.27,4.33,1,1,0,0,0,1.37-.68,102.56,102.56,0,0,0,.06-10.32C246.18,238,244.58,227.4,243.39,228.3Z" transform="translate(-220.68 -42.92)"/><path class="cls-1" d="M347.09,183.58c-14.21,4-26,11.53-41,24l101.07,9s11.8-28.56,11-29.79S368.69,184.22,347.09,183.58Z" transform="translate(-220.68 -42.92)"/><path class="cls-1" d="M315.49,199.3c-4.45-2.82-10.88-2.16-13.05,5.37S309.43,206.13,315.49,199.3Z" transform="translate(-220.68 -42.92)"/><path class="cls-1" d="M334.3,245.54c-8.32,5.55-18.53,17-9.64,16.44s34.41-1.53,39.14-6.35,11.35-15.2,7-16S343.38,242.68,334.3,245.54Z" transform="translate(-220.68 -42.92)"/><path class="cls-6" d="M249.77,237.22c-.48.51-1,3.5-1.07,7.16a3.45,3.45,0,0,0,2.8,3.32c14.58,3.75,41.68,7.09,58.64,8.53,3,.26,5.94.83,7.36-2.08s1.53-5.33-.23-7c-1.27-1.18-22.39-3.64-39.85-6-15.42-2.07-27.49-4.13-27.65-4ZM249,249.1c0-.31,12.27,4.68,30.9,6.4,7.57.69,22.6,3.24,32.44,2.59,3.36-.22,3.35-.45.94,2.38-5.8,6.83-12,7.18-25.66,5.84-14.76-1.46-24.21-3.9-32.53-6.81C251.28,258.17,249.58,253.7,249,249.1Z" transform="translate(-220.68 -42.92)"/><path class="cls-1" d="M309.06,276.83c13.42-3,32-4.32,39.14.27s13.62,20.11,10,21-24.58-.91-26.28-2.91-4-15.55-5.11-16S309.06,276.83,309.06,276.83Z" transform="translate(-220.68 -42.92)"/><path class="cls-1" d="M344.42,282.55c-5.68-.26-8-.64-12.89-.8-5.55-.18-13.24-.06-10.94.88,1.43.58,6.83,1.42,10.26,1.79C337.85,285.16,344.17,284.82,344.42,282.55Z" transform="translate(-220.68 -42.92)"/><path class="cls-1" d="M348,289.38c-12.1-.54-28.17-1.69-23.82.08S347.64,292.76,348,289.38Z" transform="translate(-220.68 -42.92)"/><path class="cls-1" d="M242.49,277.55c4.54-5.4,4.92-8.78,11.35-8s48,8,48,8,5.11,1.44,9.65,7.39l4.53,5.94S289.39,291.15,242.49,277.55Z" transform="translate(-220.68 -42.92)"/><path class="cls-1" d="M413.73,274.05l49.35-16.89-6.24,9.27-43.49,15Z" transform="translate(-220.68 -42.92)"/><path class="cls-1" d="M493.46,224.71c-16-5.07-72.47,5.35-110.34,13.51l-1.73.22c17.6-7.4,89.21-18.32,106-20.18,2.14,1.27,3.84,2.19,4.58,2.54.34.16.66.92.95,2.09Z" transform="translate(-220.68 -42.92)"/><path class="cls-1" d="M423.43,194.3c-3.48,9.11-7.26,23.92-6.3,24,1.14.07,49.73-7.41,50.49-8.5,1.62-2.34-9.44-10.33-15.56-13.82a69.17,69.17,0,0,0-24.17-8.11C425.5,187.45,424.8,190.72,423.43,194.3Z" transform="translate(-220.68 -42.92)"/><path class="cls-1" d="M427.15,206.4c-2.46.23-5.1,2.72-5.1,9.53,0,1.2,0,2.2,0,3,.31,8.8,8.05,7.56,7.5-.68,0,0,12.12-.39,13.73-1.9.81-.76,1.57-1.76-1.16-4.69A18.75,18.75,0,0,0,427.15,206.4Z" transform="translate(-220.68 -42.92)"/><polygon class="cls-1" points="193.01 228.13 251.49 210.25 239.11 218.34 192.62 238.04 193.01 228.13"/><path class="cls-1" d="M253.86,224l-1.23,1c-3.29,3.85-11.14,10.72-2.48,12,12.4,1.78,34.94,5.08,52.14,7.38,9.7,1.3,16,2.87,22,2.23,5.15-.55,20.47-5,36.73-10.2,18.73-6,38.64-12.8,45.66-15.61,5.48-2.2,1.38-3.73-4.65-4.79l4.08-1s9.18,2.58,4.52,6.28c-1.61,1.28-26.15,9.89-48.86,17.12-16.36,5.21-31.83,9.72-37.13,10.28-6.85.73-12.11-.25-23.31-1.87-16.38-2.36-39.68-6.07-51.37-7.74-10.54-1.52-4.78-8.62-.77-13.44C250.58,225.18,252.14,224.61,253.86,224Z" transform="translate(-220.68 -42.92)"/><path class="cls-4" d="M392.57,256.73c-3.11-.19-6.12,2.28-8.48,6.41-2.48,4.34-4.19,10.46-4.55,17.32-.05.85-.07,1.72-.07,2.62a37.81,37.81,0,0,0,3.07,15.75c1.81,3.84,4.29,6.32,7.08,6.63l.28,0c3.11.19,6.12-2.27,8.48-6.41,2.48-4.33,4.19-10.45,4.55-17.31.05-.85.07-1.73.07-2.62a37.81,37.81,0,0,0-3.07-15.75c-1.81-3.85-4.29-6.32-7.08-6.64l-.28,0ZM382.21,262c2.74-4.8,6.41-7.65,10.36-7.41l.39,0c3.64.41,6.74,3.38,8.9,8a39.89,39.89,0,0,1,3.28,16.69c0,.86,0,1.77-.07,2.72-.38,7.2-2.19,13.63-4.81,18.23-2.74,4.8-6.41,7.65-10.36,7.41l-.39,0c-3.63-.41-6.74-3.37-8.9-7.95A39.93,39.93,0,0,1,377.33,283c0-.86,0-1.77.07-2.73C377.78,273,379.59,266.59,382.21,262Z" transform="translate(-220.68 -42.92)"/><path class="cls-4" d="M392.16,274.54c-.8-.05-1.61.57-2.28,1.61a10.22,10.22,0,0,0-1.42,4.85c0,.22,0,.47,0,.75a9.67,9.67,0,0,0,.93,4.36,2.68,2.68,0,0,0,1.8,1.62h.09c.8,0,1.61-.57,2.27-1.6a10.18,10.18,0,0,0,1.43-4.86c0-.22,0-.47,0-.75a9.54,9.54,0,0,0-.94-4.36,2.66,2.66,0,0,0-1.8-1.61Zm-4.09.37a4.66,4.66,0,0,1,4.09-2.51l.2,0a4.83,4.83,0,0,1,3.57,2.84,11.79,11.79,0,0,1,1.19,5.39q0,.39,0,.87a12.27,12.27,0,0,1-1.74,5.84,4.71,4.71,0,0,1-4.09,2.52l-.2,0a4.85,4.85,0,0,1-3.57-2.85,11.79,11.79,0,0,1-1.2-5.39q0-.39,0-.87A12.31,12.31,0,0,1,388.07,274.91Z" transform="translate(-220.68 -42.92)"/><path class="cls-4" d="M389.88,275.87c-1.34-.08-2.55,2.08-2.69,4.83s.84,5,2.18,5.12,2.55-2.08,2.7-4.83S391.23,276,389.88,275.87Z" transform="translate(-220.68 -42.92)"/><path class="cls-4" d="M389.88,277c-.25,0-.55.31-.85.84a7.08,7.08,0,0,0-.77,3c0,.12,0,.28,0,.47a6.71,6.71,0,0,0,.5,2.7c.21.45.43.74.62.76h0c.25,0,.56-.31.86-.85a7,7,0,0,0,.77-3c0-.12,0-.27,0-.46a6.72,6.72,0,0,0-.5-2.71c-.21-.45-.43-.73-.62-.76h0s0,0,0,0Zm-2.74-.29a3.07,3.07,0,0,1,2.74-1.86H390a3.24,3.24,0,0,1,2.44,2.09,8.81,8.81,0,0,1,.71,3.64c0,.15,0,.34,0,.57a9,9,0,0,1-1,3.92,3,3,0,0,1-2.74,1.86h-.11a3.24,3.24,0,0,1-2.44-2.09,8.76,8.76,0,0,1-.71-3.63c0-.16,0-.35,0-.58a9.36,9.36,0,0,1,1-3.92Zm2.23,8.09Zm.51-7.81" transform="translate(-220.68 -42.92)"/><path class="cls-4" d="M484.18,240.19c-1.7-.1-3.36,1.64-4.65,4.53a34.15,34.15,0,0,0-2.5,12.09c0,.59,0,1.2,0,1.82a32.31,32.31,0,0,0,1.68,10.93c1,2.65,2.35,4.36,3.88,4.55h.16c1.7.11,3.35-1.63,4.65-4.53a34.37,34.37,0,0,0,2.49-12.08c0-.6,0-1.2,0-1.83a32.25,32.25,0,0,0-1.68-10.92c-1-2.66-2.36-4.36-3.89-4.56ZM478.5,244c1.5-3.37,3.52-5.38,5.68-5.25l.21,0c2,.25,3.7,2.29,4.88,5.45a34,34,0,0,1,1.8,11.58c0,.6,0,1.24,0,1.9a35.69,35.69,0,0,1-2.64,12.72c-1.5,3.36-3.51,5.38-5.67,5.24l-.22,0c-2-.25-3.69-2.29-4.88-5.45a34,34,0,0,1-1.8-11.58c0-.6,0-1.23,0-1.9A35.84,35.84,0,0,1,478.5,244Z" transform="translate(-220.68 -42.92)"/><path class="cls-4" d="M484,252.58c-.43,0-.88.41-1.24,1.14a8.52,8.52,0,0,0-.78,3.39c0,.15,0,.33,0,.52a8.12,8.12,0,0,0,.51,3c.27.65.61,1.06,1,1.11h0c.44,0,.88-.41,1.25-1.13a8.73,8.73,0,0,0,.78-3.39c0-.16,0-.33,0-.52a8.14,8.14,0,0,0-.51-3c-.27-.64-.62-1.06-1-1.11Zm-2.24.3c.58-1.16,1.37-1.84,2.24-1.79h.12c.81.11,1.49.84,1.95,2a10,10,0,0,1,.65,3.74c0,.18,0,.38,0,.6a10.21,10.21,0,0,1-1,4.08c-.58,1.15-1.37,1.84-2.24,1.79l-.11,0c-.81-.11-1.49-.83-2-1.94a10,10,0,0,1-.65-3.74c0-.18,0-.38,0-.61A10.46,10.46,0,0,1,481.71,252.88Z" transform="translate(-220.68 -42.92)"/><path class="cls-4" d="M482.71,253.53c-.74-.05-1.4,1.47-1.48,3.38s.46,3.5,1.2,3.54,1.4-1.47,1.47-3.38S483.44,253.57,482.71,253.53Z" transform="translate(-220.68 -42.92)"/><path class="cls-4" d="M482.71,254.27c-.14,0-.31.22-.47.6a6,6,0,0,0-.42,2.11,3.22,3.22,0,0,0,0,.33,5.48,5.48,0,0,0,.28,1.88c.11.31.23.5.33.52h0s0,0,0,0,.3-.22.47-.59a6.19,6.19,0,0,0,.42-2.11v-.33a5.76,5.76,0,0,0-.27-1.88c-.12-.31-.24-.5-.34-.52Zm-1.51-.17c.37-.85.9-1.35,1.51-1.32h.06c.57.07,1,.61,1.34,1.43a7.67,7.67,0,0,1,.39,2.52c0,.11,0,.24,0,.4a7.71,7.71,0,0,1-.56,2.74c-.37.84-.9,1.35-1.5,1.31h-.07c-.57-.07-1-.61-1.33-1.43a7.45,7.45,0,0,1-.39-2.52v-.4a8.18,8.18,0,0,1,.56-2.74Zm1.23,5.61Zm.28-5.44" transform="translate(-220.68 -42.92)"/><path class="cls-1" d="M231,255c7.64,4.11,11.39,7.25,17.08,12.69-7.43-1.15-10.31-2.45-17.31-4.52Z" transform="translate(-220.68 -42.92)"/><path class="cls-1" d="M232.17,265.6c2.62.89,3.7,1,6,1.87,2.55.92,6.06,2.45,4.93,2.68a19.33,19.33,0,0,1-4.82-.67C235,268.68,232.12,267.24,232.17,265.6Z" transform="translate(-220.68 -42.92)"/><path class="cls-1" d="M231.34,269.16c5.58,1.91,13,4.13,10.89,4.56S231.26,271.61,231.34,269.16Z" transform="translate(-220.68 -42.92)"/><path class="cls-4" d="M369,244.62c-9.76.84-28,.34-35.72,6.19-3.14,2.4-6.8,6.3-9.66,9.17a45.62,45.62,0,0,1,8.75-10.27c7.84-6.66,26.05-6.69,36.27-7.85Z" transform="translate(-220.68 -42.92)"/><path class="cls-4" d="M367.89,241.92c5.31-.43-4.17,11-5.95,12.48-1.39,1.15-5.45,1.74-7.38,2.08l-3.21.57.56-2.93c0-.19.53-.27,1.19-.38,5.67-1,6.12-7.3,2.68-8.12l-3.25-.4.33-1.32Z" transform="translate(-220.68 -42.92)"/><path class="cls-4" d="M240.77,231.65a10,10,0,0,1,2.37,5c.5,2.53,1,5.41,1.55,9.67,0-3.26.06-4-.15-7.16-.3-4.44-1-7.3-2.62-9.4A13.48,13.48,0,0,0,240.77,231.65Z" transform="translate(-220.68 -42.92)"/><path class="cls-4" d="M237.72,243.36l0,0a21.65,21.65,0,0,0,3.34,2.35,10.36,10.36,0,0,1,0-2.45c0-.18-.26-.42-.63-.75-3-2.63-.32-11.08,2.6-6.65a15,15,0,0,0,1.14,1.5l-.44-3.57-2.9-2.31a32.54,32.54,0,0,0-3.13,11.76Z" transform="translate(-220.68 -42.92)"/><path class="cls-4" d="M424.75,207.45c3.38-.08,6.6.86,10.29,2.49,3.16,1.4,4.56,3.17,5.18,4.89a8.51,8.51,0,0,1,.46,2.44,6.2,6.2,0,0,0,2.64-.9,1.78,1.78,0,0,0,.62-2.13,7.92,7.92,0,0,0-1.78-2.56,18.75,18.75,0,0,0-15-5.28A4.28,4.28,0,0,0,424.75,207.45Z" transform="translate(-220.68 -42.92)"/><path class="cls-4" d="M338.41,205.4c-10.08-2.45-4.51-9.54,16.63-20-.94,0-12.9-.26-14,.13-9.75,3.61-18.67,9.13-28.87,17.1a38.57,38.57,0,0,1-4.66,3.73L306,207.62l78.7,7C370.6,212.59,348.48,207.86,338.41,205.4Z" transform="translate(-220.68 -42.92)"/><path class="cls-1" d="M301.41,205.56c32.06,1.81,68.58,4.89,100.31,9.78a45.92,45.92,0,0,1,7.6,1.55l-1.41-.1c-35.87-3.22-70.51-6.69-106.64-8.23a1.5,1.5,0,0,1,.14-3Z" transform="translate(-220.68 -42.92)"/><path class="cls-4" d="M400.34,220.44c-6.43,2.45-70.26,23.54-79.71,23.54-5.12,0-50.67-5.74-70.13-8.87-2.93-.47-3.81-2-3.72-2.85-1.14,2.24-.8,4.15,3.37,4.75l26.94,3.88L284.6,242c6.1.86,12.17,1.71,17.69,2.44,9.7,1.3,16,2.87,22,2.23,5.15-.55,20.47-5,36.73-10.2,18.73-6,38.64-12.8,45.66-15.61,4.3-1.72,2.7-3-1.11-4C405.84,217.67,404.28,218.93,400.34,220.44Z" transform="translate(-220.68 -42.92)"/><path class="cls-4" d="M225.13,273.82c-2.59,5.27,1.34,8.69,6.82,11,10.93,4.52,27.75,7.63,45.07,10.78,20.56,3.75,41.94,7.33,56.65,10.1l-3.37-.25c-27.64-2.9-65.51-8.41-92.73-15.43-10.64-2.75-20.48-7.68-15.62-18Z" transform="translate(-220.68 -42.92)"/><polygon class="cls-4" points="186.38 251.41 249.77 230.97 185.02 255.75 186.38 251.41"/><path class="cls-4" d="M403.92,246.24c14.21-4.1,64.43-14.79,76.61-14.27-27.18,6.28-51.3,12.45-73.42,19.81Z" transform="translate(-220.68 -42.92)"/></svg>